M48
;Layer_Color=9474304
;FILE_FORMAT=4:3
METRIC,LZ
;TYPE=PLATED
T1F00S00C0.300
T3F00S00C0.714
T4F00S00C1.000
T5F00S00C1.020
T6F00S00C1.100
T7F00S00C1.600
;TYPE=NON_PLATED
T9F00S00C0.650
T10F00S00C2.388
T11F00S00C3.450
T12F00S00C5.200
%
T01
X001Y001
X002
X002375Y0012192
X0025Y002
X0015
X0035
X0032004Y0026416
X003Y001
X004
X005
X006
X0055Y002
X0045
X0075
X0085
X008Y001
X007
X007125Y0012192
X007Y003
X008001Y003556
X0085Y004
X008Y005
X007
X0078232Y0061214
X0081915
X0085Y006
X0065
X0055
X005715Y0056388
X006Y005
X0065Y004
X0055
X0045
X0041656Y003683
X004Y003
X005
X003
X0032004Y003556
X0030988Y0038608
X0035306Y004064
X004Y005
X0042418Y0057658
X0045Y006
X0044958Y006223
X003429Y0060198
Y0058928
X0032258Y006223
X0029718
X0034798Y0065532
X0027178Y006223
X0024384Y0051435
X002Y005
X001
X0015Y006
Y004
X002Y003
X001
Y007
Y009
X0023368Y009017
Y00889
Y008763
X002478Y0092964
X0026162Y0094234
X0027432Y0095504
X0027178Y008128
X0025Y008
X0015Y01
X003302Y0100375
Y0099314
Y0101475
X0040707Y0107113
X0046842Y010668
X004953Y0104752
X0050038Y0099875
X0051054Y0099075
X0051928Y0099752
X0050061Y0097475
X0049044Y0092964
X0047498Y0091694
X0044749Y0089199
X0044099Y008692
X0050038Y0083566
X0048768Y0081534
X0047498Y0080772
X0036068Y0082087
X0032258Y008128
X0029718
X003Y009
X0054102Y0102275
X0055118Y0103075
X0065Y01
X006Y007
X006886Y006985
X007Y007
X006886Y0068345
X008Y007
X0085Y008
X007239Y0079756
X0075Y01
X007874Y0098806
X0081788Y010414
X008Y011
X0073914Y010795
X007Y011
X0069723Y0118872
X0075Y012
X0085
X008382Y0128016
X008Y013
X007
X0067945Y0137922
X0076093Y0140335
Y014478
X0075122Y0146812
X008636Y014224
X006401Y0141335
Y0143385
X0055Y014
X0045
X0035
X003Y013
X003175Y012446
X0035Y012
X0045
X0055
X005715Y011303
X006Y011
X0065Y012
X006Y013
X005
X0043434Y0108809
X0042633
X0044196Y0107696
X003Y011
X0027432Y0110699
X0026162
X002Y011
X0025Y012
X0015
X002Y013
X001
X0015Y014
X0025
X0025908Y0140462
X002Y015
X001
X0015Y016
X0025
X0035
X0042418Y015621
X004Y015
X003
X006
X0065Y016
X0050789Y0159766
X0075Y016
X008Y015
X007
T03
X0036195Y0039055
X0038735Y0041595
X0033655
T04
X002125Y00175
X002375
X002625
X006875
X007125
X007375
Y0032
X006875
X002625
X002125
T05
X0023368Y0077978
X0025908
X0028448
X0030988
X0033528
X0036068
X0038608
X0041148
X0043688
X0046228
X0048768
X0051308
X0053848
X0056388
X0058928
X0061468
X0064008
X0066548
X0069088
X0071628
X0025908Y0154178
X0023368
X0028448
X0030988
X0033528
X0036068
X0038608
X0041148
X0043688
X0046228
X0048768
X0051308
X0053848
X0056388
X0058928
X0061468
X0064008
X0066548
X0069088
X0071628
T06
X006923Y0044
X007177
X007431
X007685
X006669
X006415
T07
X00254Y0005105
X003424
X004308
X005192
X006076
X00475Y00167
X00696Y000508
X008871Y0022415
X00889Y002921
Y003683
Y0051435
X000635Y005207
Y005842
X000654Y003664
X0008763Y0079629
Y0087249
Y0094869
Y0102489
X0004318Y0098679
Y0091059
Y0083439
Y0106299
X00889Y009525
Y00889
X008871Y0082105
X00889Y0115532
Y014605
X0008763Y0117729
Y0110109
X0004318Y0113919
X0029Y01615
X00635Y01615
X006985
X008382
X00889Y015621
Y0151275
T09
X004461Y016282
X005039
T10
X0083352Y0145801
T11
X0075122Y0129799
X0019877Y0145801
T12
X00175Y0004
X00775
X00875Y0044
X00075
X00875Y0124
X00075
X00175Y0164
X00775
M30
