%TF.GenerationSoftware,Altium Limited,Altium Designer,23.6.0 (18)*%
G04 Layer_Color=2752767*
%FSLAX43Y43*%
%MOMM*%
%TF.SameCoordinates,407812E0-2FFD-4E57-8D94-CFCBE61D5419*%
%TF.FilePolarity,Positive*%
%TF.FileFunction,Drawing*%
%TF.Part,Single*%
G01*
G75*
%TA.AperFunction,NonConductor*%
%ADD65C,0.127*%
%ADD94C,0.169*%
%ADD95C,0.102*%
D65*
X88900Y88392D02*
X88392Y89408D01*
X89408D01*
X88900Y88392D01*
X19623Y145547D02*
Y145293D01*
X20131D01*
Y145547D01*
X20385D01*
Y146055D01*
X20131D01*
Y146309D01*
X19623D01*
Y146055D01*
X19369D01*
Y145547D01*
X19623D01*
X74868Y129545D02*
Y129291D01*
X75376D01*
Y129545D01*
X75630D01*
Y130053D01*
X75376D01*
Y130307D01*
X74868D01*
Y130053D01*
X74614D01*
Y129545D01*
X74868D01*
X82844Y145293D02*
X83098Y145801D01*
X82844Y146309D01*
X83352Y146055D01*
X83860Y146309D01*
X83606Y145801D01*
X83860Y145293D01*
X83352Y145547D01*
X82844Y145293D01*
X76342Y43492D02*
X76596D01*
X76850Y43746D01*
X77104Y43492D01*
X77358D01*
Y43746D01*
X77104Y44000D01*
X77358Y44254D01*
Y44508D01*
X77104D01*
X76850Y44254D01*
X76596Y44508D01*
X76342D01*
Y44254D01*
X76596Y44000D01*
X76342Y43746D01*
Y43492D01*
X73802D02*
X74056D01*
X74310Y43746D01*
X74564Y43492D01*
X74818D01*
Y43746D01*
X74564Y44000D01*
X74818Y44254D01*
Y44508D01*
X74564D01*
X74310Y44254D01*
X74056Y44508D01*
X73802D01*
Y44254D01*
X74056Y44000D01*
X73802Y43746D01*
Y43492D01*
X68722D02*
X68976D01*
X69230Y43746D01*
X69484Y43492D01*
X69738D01*
Y43746D01*
X69484Y44000D01*
X69738Y44254D01*
Y44508D01*
X69484D01*
X69230Y44254D01*
X68976Y44508D01*
X68722D01*
Y44254D01*
X68976Y44000D01*
X68722Y43746D01*
Y43492D01*
X63642D02*
X63896D01*
X64150Y43746D01*
X64404Y43492D01*
X64658D01*
Y43746D01*
X64404Y44000D01*
X64658Y44254D01*
Y44508D01*
X64404D01*
X64150Y44254D01*
X63896Y44508D01*
X63642D01*
Y44254D01*
X63896Y44000D01*
X63642Y43746D01*
Y43492D01*
X66182D02*
X66436D01*
X66690Y43746D01*
X66944Y43492D01*
X67198D01*
Y43746D01*
X66944Y44000D01*
X67198Y44254D01*
Y44508D01*
X66944D01*
X66690Y44254D01*
X66436Y44508D01*
X66182D01*
Y44254D01*
X66436Y44000D01*
X66182Y43746D01*
Y43492D01*
X71262D02*
X71516D01*
X71770Y43746D01*
X72024Y43492D01*
X72278D01*
Y43746D01*
X72024Y44000D01*
X72278Y44254D01*
Y44508D01*
X72024D01*
X71770Y44254D01*
X71516Y44508D01*
X71262D01*
Y44254D01*
X71516Y44000D01*
X71262Y43746D01*
Y43492D01*
X29000Y160992D02*
X28492Y162008D01*
X29508D01*
X29000Y160992D01*
X88710Y81597D02*
X88202Y82613D01*
X89218D01*
X88710Y81597D01*
X6540Y36132D02*
X6032Y37148D01*
X7048D01*
X6540Y36132D01*
X47500Y16192D02*
X46992Y17208D01*
X48008D01*
X47500Y16192D01*
X88710Y21907D02*
X88202Y22923D01*
X89218D01*
X88710Y21907D01*
X8763Y79121D02*
X8255Y80137D01*
X9271D01*
X8763Y79121D01*
X4318Y82931D02*
X3810Y83947D01*
X4826D01*
X4318Y82931D01*
X8763Y86741D02*
X8255Y87757D01*
X9271D01*
X8763Y86741D01*
X4318Y90551D02*
X3810Y91567D01*
X4826D01*
X4318Y90551D01*
X8763Y94361D02*
X8255Y95377D01*
X9271D01*
X8763Y94361D01*
X4318Y98171D02*
X3810Y99187D01*
X4826D01*
X4318Y98171D01*
X8763Y101981D02*
X8255Y102997D01*
X9271D01*
X8763Y101981D01*
X4318Y105791D02*
X3810Y106807D01*
X4826D01*
X4318Y105791D01*
X8763Y109601D02*
X8255Y110617D01*
X9271D01*
X8763Y109601D01*
X4318Y113411D02*
X3810Y114427D01*
X4826D01*
X4318Y113411D01*
X8763Y117221D02*
X8255Y118237D01*
X9271D01*
X8763Y117221D01*
X65142Y24492D02*
Y25508D01*
X66158D01*
Y24492D01*
X65142D01*
X76342D02*
Y25508D01*
X77358D01*
Y24492D01*
X76342D01*
X17642D02*
Y25508D01*
X18658D01*
Y24492D01*
X17642D01*
X28842D02*
Y25508D01*
X29858D01*
Y24492D01*
X28842D01*
X43080Y4597D02*
X42572Y5613D01*
X43588D01*
X43080Y4597D01*
X69600Y4572D02*
X69092Y5588D01*
X70108D01*
X69600Y4572D01*
X60760Y4597D02*
X60252Y5613D01*
X61268D01*
X60760Y4597D01*
X51920D02*
X51412Y5613D01*
X52428D01*
X51920Y4597D01*
X34240D02*
X33732Y5613D01*
X34748D01*
X34240Y4597D01*
X25400D02*
X24892Y5613D01*
X25908D01*
X25400Y4597D01*
X88900Y28702D02*
X88392Y29718D01*
X89408D01*
X88900Y28702D01*
Y36322D02*
X88392Y37338D01*
X89408D01*
X88900Y36322D01*
Y50927D02*
X88392Y51943D01*
X89408D01*
X88900Y50927D01*
X38227Y41087D02*
X38481Y41595D01*
X38227Y42103D01*
X38735Y41849D01*
X39243Y42103D01*
X38989Y41595D01*
X39243Y41087D01*
X38735Y41341D01*
X38227Y41087D01*
X38430Y41290D02*
X38583Y41595D01*
X38430Y41900D01*
X38735Y41747D01*
X39040Y41900D01*
X38887Y41595D01*
X39040Y41290D01*
X38735Y41443D01*
X38430Y41290D01*
X35687Y38547D02*
X35941Y39055D01*
X35687Y39563D01*
X36195Y39309D01*
X36703Y39563D01*
X36449Y39055D01*
X36703Y38547D01*
X36195Y38801D01*
X35687Y38547D01*
X35890Y38750D02*
X36043Y39055D01*
X35890Y39360D01*
X36195Y39207D01*
X36500Y39360D01*
X36347Y39055D01*
X36500Y38750D01*
X36195Y38903D01*
X35890Y38750D01*
X33147Y41087D02*
X33401Y41595D01*
X33147Y42103D01*
X33655Y41849D01*
X34163Y42103D01*
X33909Y41595D01*
X34163Y41087D01*
X33655Y41341D01*
X33147Y41087D01*
X33350Y41290D02*
X33503Y41595D01*
X33350Y41900D01*
X33655Y41747D01*
X33960Y41900D01*
X33807Y41595D01*
X33960Y41290D01*
X33655Y41443D01*
X33350Y41290D01*
X6350Y51562D02*
X5842Y52578D01*
X6858D01*
X6350Y51562D01*
Y57912D02*
X5842Y58928D01*
X6858D01*
X6350Y57912D01*
X51312Y165992D02*
Y167008D01*
X52328D01*
Y165992D01*
X51312D01*
X51515Y166195D02*
Y166805D01*
X52125D01*
Y166195D01*
X51515D01*
X42672Y165992D02*
Y167008D01*
X43688D01*
Y165992D01*
X42672D01*
X42875Y166195D02*
Y166805D01*
X43485D01*
Y166195D01*
X42875D01*
X51312Y162320D02*
X51820Y162828D01*
X52328Y162320D01*
X51820Y161812D01*
X51312Y162320D01*
X42672D02*
X43180Y162828D01*
X43688Y162320D01*
X43180Y161812D01*
X42672Y162320D01*
X44610Y162312D02*
X44864Y162566D01*
X45118D01*
X44864Y162820D01*
X45118Y163074D01*
X44864D01*
X44610Y163328D01*
X44356Y163074D01*
X44102D01*
X44356Y162820D01*
X44102Y162566D01*
X44356D01*
X44610Y162312D01*
X50390D02*
X50644Y162566D01*
X50898D01*
X50644Y162820D01*
X50898Y163074D01*
X50644D01*
X50390Y163328D01*
X50136Y163074D01*
X49882D01*
X50136Y162820D01*
X49882Y162566D01*
X50136D01*
X50390Y162312D01*
X63500Y160992D02*
X62992Y162008D01*
X64008D01*
X63500Y160992D01*
X88900Y145542D02*
X88392Y146558D01*
X89408D01*
X88900Y145542D01*
Y150767D02*
X88392Y151783D01*
X89408D01*
X88900Y150767D01*
Y155702D02*
X88392Y156718D01*
X89408D01*
X88900Y155702D01*
Y115024D02*
X88392Y116040D01*
X89408D01*
X88900Y115024D01*
Y94742D02*
X88392Y95758D01*
X89408D01*
X88900Y94742D01*
X83820Y160992D02*
X83312Y162008D01*
X84328D01*
X83820Y160992D01*
X69850D02*
X69342Y162008D01*
X70358D01*
X69850Y160992D01*
X87500Y43492D02*
X87754Y43746D01*
X88008D01*
X87754Y44000D01*
X88008Y44254D01*
X87754D01*
X87500Y44508D01*
X87246Y44254D01*
X86992D01*
X87246Y44000D01*
X86992Y43746D01*
X87246D01*
X87500Y43492D01*
Y43695D02*
X87652Y43848D01*
X87805D01*
X87652Y44000D01*
X87805Y44152D01*
X87652D01*
X87500Y44305D01*
X87348Y44152D01*
X87195D01*
X87348Y44000D01*
X87195Y43848D01*
X87348D01*
X87500Y43695D01*
Y123492D02*
X87754Y123746D01*
X88008D01*
X87754Y124000D01*
X88008Y124254D01*
X87754D01*
X87500Y124508D01*
X87246Y124254D01*
X86992D01*
X87246Y124000D01*
X86992Y123746D01*
X87246D01*
X87500Y123492D01*
Y123695D02*
X87652Y123848D01*
X87805D01*
X87652Y124000D01*
X87805Y124152D01*
X87652D01*
X87500Y124305D01*
X87348Y124152D01*
X87195D01*
X87348Y124000D01*
X87195Y123848D01*
X87348D01*
X87500Y123695D01*
X7500Y123492D02*
X7754Y123746D01*
X8008D01*
X7754Y124000D01*
X8008Y124254D01*
X7754D01*
X7500Y124508D01*
X7246Y124254D01*
X6992D01*
X7246Y124000D01*
X6992Y123746D01*
X7246D01*
X7500Y123492D01*
Y123695D02*
X7652Y123848D01*
X7805D01*
X7652Y124000D01*
X7805Y124152D01*
X7652D01*
X7500Y124305D01*
X7348Y124152D01*
X7195D01*
X7348Y124000D01*
X7195Y123848D01*
X7348D01*
X7500Y123695D01*
Y43492D02*
X7754Y43746D01*
X8008D01*
X7754Y44000D01*
X8008Y44254D01*
X7754D01*
X7500Y44508D01*
X7246Y44254D01*
X6992D01*
X7246Y44000D01*
X6992Y43746D01*
X7246D01*
X7500Y43492D01*
Y43695D02*
X7652Y43848D01*
X7805D01*
X7652Y44000D01*
X7805Y44152D01*
X7652D01*
X7500Y44305D01*
X7348Y44152D01*
X7195D01*
X7348Y44000D01*
X7195Y43848D01*
X7348D01*
X7500Y43695D01*
X77500Y163492D02*
X77754Y163746D01*
X78008D01*
X77754Y164000D01*
X78008Y164254D01*
X77754D01*
X77500Y164508D01*
X77246Y164254D01*
X76992D01*
X77246Y164000D01*
X76992Y163746D01*
X77246D01*
X77500Y163492D01*
Y163695D02*
X77652Y163848D01*
X77805D01*
X77652Y164000D01*
X77805Y164152D01*
X77652D01*
X77500Y164305D01*
X77348Y164152D01*
X77195D01*
X77348Y164000D01*
X77195Y163848D01*
X77348D01*
X77500Y163695D01*
X17500Y3492D02*
X17754Y3746D01*
X18008D01*
X17754Y4000D01*
X18008Y4254D01*
X17754D01*
X17500Y4508D01*
X17246Y4254D01*
X16992D01*
X17246Y4000D01*
X16992Y3746D01*
X17246D01*
X17500Y3492D01*
Y3695D02*
X17652Y3848D01*
X17805D01*
X17652Y4000D01*
X17805Y4152D01*
X17652D01*
X17500Y4305D01*
X17348Y4152D01*
X17195D01*
X17348Y4000D01*
X17195Y3848D01*
X17348D01*
X17500Y3695D01*
X77500Y3492D02*
X77754Y3746D01*
X78008D01*
X77754Y4000D01*
X78008Y4254D01*
X77754D01*
X77500Y4508D01*
X77246Y4254D01*
X76992D01*
X77246Y4000D01*
X76992Y3746D01*
X77246D01*
X77500Y3492D01*
Y3695D02*
X77652Y3848D01*
X77805D01*
X77652Y4000D01*
X77805Y4152D01*
X77652D01*
X77500Y4305D01*
X77348Y4152D01*
X77195D01*
X77348Y4000D01*
X77195Y3848D01*
X77348D01*
X77500Y3695D01*
X17500Y163492D02*
X17754Y163746D01*
X18008D01*
X17754Y164000D01*
X18008Y164254D01*
X17754D01*
X17500Y164508D01*
X17246Y164254D01*
X16992D01*
X17246Y164000D01*
X16992Y163746D01*
X17246D01*
X17500Y163492D01*
Y163695D02*
X17652Y163848D01*
X17805D01*
X17652Y164000D01*
X17805Y164152D01*
X17652D01*
X17500Y164305D01*
X17348Y164152D01*
X17195D01*
X17348Y164000D01*
X17195Y163848D01*
X17348D01*
X17500Y163695D01*
X80000Y149492D02*
X79492Y150508D01*
X80508D01*
X80000Y149492D01*
Y149695D02*
X79695Y150305D01*
X80305D01*
X80000Y149695D01*
Y129492D02*
X79492Y130508D01*
X80508D01*
X80000Y129492D01*
Y129695D02*
X79695Y130305D01*
X80305D01*
X80000Y129695D01*
X85000Y119492D02*
X84492Y120508D01*
X85508D01*
X85000Y119492D01*
Y119695D02*
X84695Y120305D01*
X85305D01*
X85000Y119695D01*
X80000Y109492D02*
X79492Y110508D01*
X80508D01*
X80000Y109492D01*
Y109695D02*
X79695Y110305D01*
X80305D01*
X80000Y109695D01*
X85000Y79492D02*
X84492Y80508D01*
X85508D01*
X85000Y79492D01*
Y79695D02*
X84695Y80305D01*
X85305D01*
X85000Y79695D01*
X80000Y69492D02*
X79492Y70508D01*
X80508D01*
X80000Y69492D01*
Y69695D02*
X79695Y70305D01*
X80305D01*
X80000Y69695D01*
X85000Y59492D02*
X84492Y60508D01*
X85508D01*
X85000Y59492D01*
Y59695D02*
X84695Y60305D01*
X85305D01*
X85000Y59695D01*
X80000Y49492D02*
X79492Y50508D01*
X80508D01*
X80000Y49492D01*
Y49695D02*
X79695Y50305D01*
X80305D01*
X80000Y49695D01*
X85000Y39492D02*
X84492Y40508D01*
X85508D01*
X85000Y39492D01*
Y39695D02*
X84695Y40305D01*
X85305D01*
X85000Y39695D01*
Y19492D02*
X84492Y20508D01*
X85508D01*
X85000Y19492D01*
Y19695D02*
X84695Y20305D01*
X85305D01*
X85000Y19695D01*
X80000Y9492D02*
X79492Y10508D01*
X80508D01*
X80000Y9492D01*
Y9695D02*
X79695Y10305D01*
X80305D01*
X80000Y9695D01*
X75000Y159492D02*
X74492Y160508D01*
X75508D01*
X75000Y159492D01*
Y159695D02*
X74695Y160305D01*
X75305D01*
X75000Y159695D01*
X70000Y149492D02*
X69492Y150508D01*
X70508D01*
X70000Y149492D01*
Y149695D02*
X69695Y150305D01*
X70305D01*
X70000Y149695D01*
Y129492D02*
X69492Y130508D01*
X70508D01*
X70000Y129492D01*
Y129695D02*
X69695Y130305D01*
X70305D01*
X70000Y129695D01*
X75000Y119492D02*
X74492Y120508D01*
X75508D01*
X75000Y119492D01*
Y119695D02*
X74695Y120305D01*
X75305D01*
X75000Y119695D01*
X70000Y109492D02*
X69492Y110508D01*
X70508D01*
X70000Y109492D01*
Y109695D02*
X69695Y110305D01*
X70305D01*
X70000Y109695D01*
X75000Y99492D02*
X74492Y100508D01*
X75508D01*
X75000Y99492D01*
Y99695D02*
X74695Y100305D01*
X75305D01*
X75000Y99695D01*
X70000Y69492D02*
X69492Y70508D01*
X70508D01*
X70000Y69492D01*
Y69695D02*
X69695Y70305D01*
X70305D01*
X70000Y69695D01*
Y49492D02*
X69492Y50508D01*
X70508D01*
X70000Y49492D01*
Y49695D02*
X69695Y50305D01*
X70305D01*
X70000Y49695D01*
Y29492D02*
X69492Y30508D01*
X70508D01*
X70000Y29492D01*
Y29695D02*
X69695Y30305D01*
X70305D01*
X70000Y29695D01*
X75000Y19492D02*
X74492Y20508D01*
X75508D01*
X75000Y19492D01*
Y19695D02*
X74695Y20305D01*
X75305D01*
X75000Y19695D01*
X70000Y9492D02*
X69492Y10508D01*
X70508D01*
X70000Y9492D01*
Y9695D02*
X69695Y10305D01*
X70305D01*
X70000Y9695D01*
X65000Y159492D02*
X64492Y160508D01*
X65508D01*
X65000Y159492D01*
Y159695D02*
X64695Y160305D01*
X65305D01*
X65000Y159695D01*
X60000Y149492D02*
X59492Y150508D01*
X60508D01*
X60000Y149492D01*
Y149695D02*
X59695Y150305D01*
X60305D01*
X60000Y149695D01*
Y129492D02*
X59492Y130508D01*
X60508D01*
X60000Y129492D01*
Y129695D02*
X59695Y130305D01*
X60305D01*
X60000Y129695D01*
X65000Y119492D02*
X64492Y120508D01*
X65508D01*
X65000Y119492D01*
Y119695D02*
X64695Y120305D01*
X65305D01*
X65000Y119695D01*
X60000Y109492D02*
X59492Y110508D01*
X60508D01*
X60000Y109492D01*
Y109695D02*
X59695Y110305D01*
X60305D01*
X60000Y109695D01*
X65000Y99492D02*
X64492Y100508D01*
X65508D01*
X65000Y99492D01*
Y99695D02*
X64695Y100305D01*
X65305D01*
X65000Y99695D01*
X60000Y69492D02*
X59492Y70508D01*
X60508D01*
X60000Y69492D01*
Y69695D02*
X59695Y70305D01*
X60305D01*
X60000Y69695D01*
X65000Y59492D02*
X64492Y60508D01*
X65508D01*
X65000Y59492D01*
Y59695D02*
X64695Y60305D01*
X65305D01*
X65000Y59695D01*
X60000Y49492D02*
X59492Y50508D01*
X60508D01*
X60000Y49492D01*
Y49695D02*
X59695Y50305D01*
X60305D01*
X60000Y49695D01*
X65000Y39492D02*
X64492Y40508D01*
X65508D01*
X65000Y39492D01*
Y39695D02*
X64695Y40305D01*
X65305D01*
X65000Y39695D01*
X60000Y9492D02*
X59492Y10508D01*
X60508D01*
X60000Y9492D01*
Y9695D02*
X59695Y10305D01*
X60305D01*
X60000Y9695D01*
X55000Y139492D02*
X54492Y140508D01*
X55508D01*
X55000Y139492D01*
Y139695D02*
X54695Y140305D01*
X55305D01*
X55000Y139695D01*
X50000Y129492D02*
X49492Y130508D01*
X50508D01*
X50000Y129492D01*
Y129695D02*
X49695Y130305D01*
X50305D01*
X50000Y129695D01*
X55000Y119492D02*
X54492Y120508D01*
X55508D01*
X55000Y119492D01*
Y119695D02*
X54695Y120305D01*
X55305D01*
X55000Y119695D01*
Y59492D02*
X54492Y60508D01*
X55508D01*
X55000Y59492D01*
Y59695D02*
X54695Y60305D01*
X55305D01*
X55000Y59695D01*
Y39492D02*
X54492Y40508D01*
X55508D01*
X55000Y39492D01*
Y39695D02*
X54695Y40305D01*
X55305D01*
X55000Y39695D01*
X50000Y29492D02*
X49492Y30508D01*
X50508D01*
X50000Y29492D01*
Y29695D02*
X49695Y30305D01*
X50305D01*
X50000Y29695D01*
X55000Y19492D02*
X54492Y20508D01*
X55508D01*
X55000Y19492D01*
Y19695D02*
X54695Y20305D01*
X55305D01*
X55000Y19695D01*
X50000Y9492D02*
X49492Y10508D01*
X50508D01*
X50000Y9492D01*
Y9695D02*
X49695Y10305D01*
X50305D01*
X50000Y9695D01*
X40000Y149492D02*
X39492Y150508D01*
X40508D01*
X40000Y149492D01*
Y149695D02*
X39695Y150305D01*
X40305D01*
X40000Y149695D01*
X45000Y139492D02*
X44492Y140508D01*
X45508D01*
X45000Y139492D01*
Y139695D02*
X44695Y140305D01*
X45305D01*
X45000Y139695D01*
Y119492D02*
X44492Y120508D01*
X45508D01*
X45000Y119492D01*
Y119695D02*
X44695Y120305D01*
X45305D01*
X45000Y119695D01*
Y59492D02*
X44492Y60508D01*
X45508D01*
X45000Y59492D01*
Y59695D02*
X44695Y60305D01*
X45305D01*
X45000Y59695D01*
X40000Y49492D02*
X39492Y50508D01*
X40508D01*
X40000Y49492D01*
Y49695D02*
X39695Y50305D01*
X40305D01*
X40000Y49695D01*
X45000Y39492D02*
X44492Y40508D01*
X45508D01*
X45000Y39492D01*
Y39695D02*
X44695Y40305D01*
X45305D01*
X45000Y39695D01*
X40000Y29492D02*
X39492Y30508D01*
X40508D01*
X40000Y29492D01*
Y29695D02*
X39695Y30305D01*
X40305D01*
X40000Y29695D01*
X45000Y19492D02*
X44492Y20508D01*
X45508D01*
X45000Y19492D01*
Y19695D02*
X44695Y20305D01*
X45305D01*
X45000Y19695D01*
X40000Y9492D02*
X39492Y10508D01*
X40508D01*
X40000Y9492D01*
Y9695D02*
X39695Y10305D01*
X40305D01*
X40000Y9695D01*
X35000Y159492D02*
X34492Y160508D01*
X35508D01*
X35000Y159492D01*
Y159695D02*
X34695Y160305D01*
X35305D01*
X35000Y159695D01*
X30000Y149492D02*
X29492Y150508D01*
X30508D01*
X30000Y149492D01*
Y149695D02*
X29695Y150305D01*
X30305D01*
X30000Y149695D01*
X35000Y139492D02*
X34492Y140508D01*
X35508D01*
X35000Y139492D01*
Y139695D02*
X34695Y140305D01*
X35305D01*
X35000Y139695D01*
X30000Y129492D02*
X29492Y130508D01*
X30508D01*
X30000Y129492D01*
Y129695D02*
X29695Y130305D01*
X30305D01*
X30000Y129695D01*
X35000Y119492D02*
X34492Y120508D01*
X35508D01*
X35000Y119492D01*
Y119695D02*
X34695Y120305D01*
X35305D01*
X35000Y119695D01*
X30000Y109492D02*
X29492Y110508D01*
X30508D01*
X30000Y109492D01*
Y109695D02*
X29695Y110305D01*
X30305D01*
X30000Y109695D01*
Y89492D02*
X29492Y90508D01*
X30508D01*
X30000Y89492D01*
Y89695D02*
X29695Y90305D01*
X30305D01*
X30000Y89695D01*
Y29492D02*
X29492Y30508D01*
X30508D01*
X30000Y29492D01*
Y29695D02*
X29695Y30305D01*
X30305D01*
X30000Y29695D01*
X35000Y19492D02*
X34492Y20508D01*
X35508D01*
X35000Y19492D01*
Y19695D02*
X34695Y20305D01*
X35305D01*
X35000Y19695D01*
X30000Y9492D02*
X29492Y10508D01*
X30508D01*
X30000Y9492D01*
Y9695D02*
X29695Y10305D01*
X30305D01*
X30000Y9695D01*
X25000Y159492D02*
X24492Y160508D01*
X25508D01*
X25000Y159492D01*
Y159695D02*
X24695Y160305D01*
X25305D01*
X25000Y159695D01*
X20000Y149492D02*
X19492Y150508D01*
X20508D01*
X20000Y149492D01*
Y149695D02*
X19695Y150305D01*
X20305D01*
X20000Y149695D01*
X25000Y139492D02*
X24492Y140508D01*
X25508D01*
X25000Y139492D01*
Y139695D02*
X24695Y140305D01*
X25305D01*
X25000Y139695D01*
X20000Y129492D02*
X19492Y130508D01*
X20508D01*
X20000Y129492D01*
Y129695D02*
X19695Y130305D01*
X20305D01*
X20000Y129695D01*
X25000Y119492D02*
X24492Y120508D01*
X25508D01*
X25000Y119492D01*
Y119695D02*
X24695Y120305D01*
X25305D01*
X25000Y119695D01*
X20000Y109492D02*
X19492Y110508D01*
X20508D01*
X20000Y109492D01*
Y109695D02*
X19695Y110305D01*
X20305D01*
X20000Y109695D01*
X25000Y79492D02*
X24492Y80508D01*
X25508D01*
X25000Y79492D01*
Y79695D02*
X24695Y80305D01*
X25305D01*
X25000Y79695D01*
X20000Y49492D02*
X19492Y50508D01*
X20508D01*
X20000Y49492D01*
Y49695D02*
X19695Y50305D01*
X20305D01*
X20000Y49695D01*
Y29492D02*
X19492Y30508D01*
X20508D01*
X20000Y29492D01*
Y29695D02*
X19695Y30305D01*
X20305D01*
X20000Y29695D01*
X25000Y19492D02*
X24492Y20508D01*
X25508D01*
X25000Y19492D01*
Y19695D02*
X24695Y20305D01*
X25305D01*
X25000Y19695D01*
X20000Y9492D02*
X19492Y10508D01*
X20508D01*
X20000Y9492D01*
Y9695D02*
X19695Y10305D01*
X20305D01*
X20000Y9695D01*
X15000Y159492D02*
X14492Y160508D01*
X15508D01*
X15000Y159492D01*
Y159695D02*
X14695Y160305D01*
X15305D01*
X15000Y159695D01*
X10000Y149492D02*
X9492Y150508D01*
X10508D01*
X10000Y149492D01*
Y149695D02*
X9695Y150305D01*
X10305D01*
X10000Y149695D01*
X15000Y139492D02*
X14492Y140508D01*
X15508D01*
X15000Y139492D01*
Y139695D02*
X14695Y140305D01*
X15305D01*
X15000Y139695D01*
X10000Y129492D02*
X9492Y130508D01*
X10508D01*
X10000Y129492D01*
Y129695D02*
X9695Y130305D01*
X10305D01*
X10000Y129695D01*
X15000Y119492D02*
X14492Y120508D01*
X15508D01*
X15000Y119492D01*
Y119695D02*
X14695Y120305D01*
X15305D01*
X15000Y119695D01*
Y99492D02*
X14492Y100508D01*
X15508D01*
X15000Y99492D01*
Y99695D02*
X14695Y100305D01*
X15305D01*
X15000Y99695D01*
X10000Y89492D02*
X9492Y90508D01*
X10508D01*
X10000Y89492D01*
Y89695D02*
X9695Y90305D01*
X10305D01*
X10000Y89695D01*
Y69492D02*
X9492Y70508D01*
X10508D01*
X10000Y69492D01*
Y69695D02*
X9695Y70305D01*
X10305D01*
X10000Y69695D01*
X15000Y59492D02*
X14492Y60508D01*
X15508D01*
X15000Y59492D01*
Y59695D02*
X14695Y60305D01*
X15305D01*
X15000Y59695D01*
X10000Y49492D02*
X9492Y50508D01*
X10508D01*
X10000Y49492D01*
Y49695D02*
X9695Y50305D01*
X10305D01*
X10000Y49695D01*
X15000Y39492D02*
X14492Y40508D01*
X15508D01*
X15000Y39492D01*
Y39695D02*
X14695Y40305D01*
X15305D01*
X15000Y39695D01*
X10000Y29492D02*
X9492Y30508D01*
X10508D01*
X10000Y29492D01*
Y29695D02*
X9695Y30305D01*
X10305D01*
X10000Y29695D01*
X15000Y19492D02*
X14492Y20508D01*
X15508D01*
X15000Y19492D01*
Y19695D02*
X14695Y20305D01*
X15305D01*
X15000Y19695D01*
X10000Y9492D02*
X9492Y10508D01*
X10508D01*
X10000Y9492D01*
Y9695D02*
X9695Y10305D01*
X10305D01*
X10000Y9695D01*
X42633Y108301D02*
X42125Y109317D01*
X43141D01*
X42633Y108301D01*
Y108504D02*
X42328Y109114D01*
X42938D01*
X42633Y108504D01*
X49530Y104244D02*
X49022Y105260D01*
X50038D01*
X49530Y104244D01*
Y104447D02*
X49225Y105057D01*
X49835D01*
X49530Y104447D01*
X49044Y92456D02*
X48536Y93472D01*
X49552D01*
X49044Y92456D01*
Y92659D02*
X48739Y93269D01*
X49349D01*
X49044Y92659D01*
X50061Y96967D02*
X49553Y97983D01*
X50569D01*
X50061Y96967D01*
Y97170D02*
X49756Y97780D01*
X50366D01*
X50061Y97170D01*
X51054Y98567D02*
X50546Y99583D01*
X51562D01*
X51054Y98567D01*
Y98770D02*
X50749Y99380D01*
X51359D01*
X51054Y98770D01*
X50038Y99367D02*
X49530Y100383D01*
X50546D01*
X50038Y99367D01*
Y99570D02*
X49733Y100180D01*
X50343D01*
X50038Y99570D01*
X54102Y101767D02*
X53594Y102783D01*
X54610D01*
X54102Y101767D01*
Y101970D02*
X53797Y102580D01*
X54407D01*
X54102Y101970D01*
X55118Y102567D02*
X54610Y103583D01*
X55626D01*
X55118Y102567D01*
Y102770D02*
X54813Y103380D01*
X55423D01*
X55118Y102770D01*
X51928Y99244D02*
X51420Y100260D01*
X52436D01*
X51928Y99244D01*
Y99447D02*
X51623Y100057D01*
X52233D01*
X51928Y99447D01*
X33020Y98806D02*
X32512Y99822D01*
X33528D01*
X33020Y98806D01*
Y99009D02*
X32715Y99619D01*
X33325D01*
X33020Y99009D01*
Y99867D02*
X32512Y100883D01*
X33528D01*
X33020Y99867D01*
Y100070D02*
X32715Y100680D01*
X33325D01*
X33020Y100070D01*
Y100967D02*
X32512Y101983D01*
X33528D01*
X33020Y100967D01*
Y101170D02*
X32715Y101780D01*
X33325D01*
X33020Y101170D01*
X44196Y107188D02*
X43688Y108204D01*
X44704D01*
X44196Y107188D01*
Y107391D02*
X43891Y108001D01*
X44501D01*
X44196Y107391D01*
X43434Y108301D02*
X42926Y109317D01*
X43942D01*
X43434Y108301D01*
Y108504D02*
X43129Y109114D01*
X43739D01*
X43434Y108504D01*
X40707Y106605D02*
X40199Y107621D01*
X41215D01*
X40707Y106605D01*
Y106808D02*
X40402Y107418D01*
X41011D01*
X40707Y106808D01*
X81915Y60706D02*
X81407Y61722D01*
X82423D01*
X81915Y60706D01*
Y60909D02*
X81610Y61519D01*
X82220D01*
X81915Y60909D01*
X78232Y60706D02*
X77724Y61722D01*
X78740D01*
X78232Y60706D01*
Y60909D02*
X77927Y61519D01*
X78537D01*
X78232Y60909D01*
X41656Y36322D02*
X41148Y37338D01*
X42164D01*
X41656Y36322D01*
Y36525D02*
X41351Y37135D01*
X41961D01*
X41656Y36525D01*
X50789Y159258D02*
X50281Y160274D01*
X51297D01*
X50789Y159258D01*
Y159461D02*
X50484Y160071D01*
X51094D01*
X50789Y159461D01*
X36068Y81579D02*
X35560Y82595D01*
X36576D01*
X36068Y81579D01*
Y81782D02*
X35763Y82392D01*
X36373D01*
X36068Y81782D01*
X47498Y91186D02*
X46990Y92202D01*
X48006D01*
X47498Y91186D01*
Y91389D02*
X47193Y91999D01*
X47803D01*
X47498Y91389D01*
X31750Y123952D02*
X31242Y124968D01*
X32258D01*
X31750Y123952D01*
Y124155D02*
X31445Y124765D01*
X32055D01*
X31750Y124155D01*
X25908Y139954D02*
X25400Y140970D01*
X26416D01*
X25908Y139954D01*
Y140157D02*
X25603Y140767D01*
X26213D01*
X25908Y140157D01*
X42418Y155702D02*
X41910Y156718D01*
X42926D01*
X42418Y155702D01*
Y155905D02*
X42113Y156515D01*
X42723D01*
X42418Y155905D01*
X26162Y110191D02*
X25654Y111207D01*
X26670D01*
X26162Y110191D01*
Y110394D02*
X25857Y111004D01*
X26467D01*
X26162Y110394D01*
Y93726D02*
X25654Y94742D01*
X26670D01*
X26162Y93726D01*
Y93929D02*
X25857Y94539D01*
X26467D01*
X26162Y93929D01*
X24780Y92456D02*
X24272Y93472D01*
X25288D01*
X24780Y92456D01*
Y92659D02*
X24475Y93269D01*
X25085D01*
X24780Y92659D01*
X42418Y57150D02*
X41910Y58166D01*
X42926D01*
X42418Y57150D01*
Y57353D02*
X42113Y57963D01*
X42723D01*
X42418Y57353D01*
X34290Y58420D02*
X33782Y59436D01*
X34798D01*
X34290Y58420D01*
Y58623D02*
X33985Y59233D01*
X34595D01*
X34290Y58623D01*
Y59690D02*
X33782Y60706D01*
X34798D01*
X34290Y59690D01*
Y59893D02*
X33985Y60503D01*
X34595D01*
X34290Y59893D01*
X34798Y65024D02*
X34290Y66040D01*
X35306D01*
X34798Y65024D01*
Y65227D02*
X34493Y65837D01*
X35103D01*
X34798Y65227D01*
X24384Y50927D02*
X23876Y51943D01*
X24892D01*
X24384Y50927D01*
Y51130D02*
X24079Y51740D01*
X24689D01*
X24384Y51130D01*
X23368Y87122D02*
X22860Y88138D01*
X23876D01*
X23368Y87122D01*
Y87325D02*
X23063Y87935D01*
X23673D01*
X23368Y87325D01*
Y88392D02*
X22860Y89408D01*
X23876D01*
X23368Y88392D01*
Y88595D02*
X23063Y89205D01*
X23673D01*
X23368Y88595D01*
Y89662D02*
X22860Y90678D01*
X23876D01*
X23368Y89662D01*
Y89865D02*
X23063Y90475D01*
X23673D01*
X23368Y89865D01*
X27432Y94996D02*
X26924Y96012D01*
X27940D01*
X27432Y94996D01*
Y95199D02*
X27127Y95809D01*
X27737D01*
X27432Y95199D01*
X48768Y81026D02*
X48260Y82042D01*
X49276D01*
X48768Y81026D01*
Y81229D02*
X48463Y81839D01*
X49073D01*
X48768Y81229D01*
X50038Y83058D02*
X49530Y84074D01*
X50546D01*
X50038Y83058D01*
Y83261D02*
X49733Y83871D01*
X50343D01*
X50038Y83261D01*
X44958Y61722D02*
X44450Y62738D01*
X45466D01*
X44958Y61722D01*
Y61925D02*
X44653Y62535D01*
X45263D01*
X44958Y61925D01*
X57150Y55880D02*
X56642Y56896D01*
X57658D01*
X57150Y55880D01*
Y56083D02*
X56845Y56693D01*
X57455D01*
X57150Y56083D01*
X47498Y80264D02*
X46990Y81280D01*
X48006D01*
X47498Y80264D01*
Y80467D02*
X47193Y81077D01*
X47803D01*
X47498Y80467D01*
X35306Y40132D02*
X34798Y41148D01*
X35814D01*
X35306Y40132D01*
Y40335D02*
X35001Y40945D01*
X35611D01*
X35306Y40335D01*
X32258Y61722D02*
X31750Y62738D01*
X32766D01*
X32258Y61722D01*
Y61925D02*
X31953Y62535D01*
X32563D01*
X32258Y61925D01*
Y80772D02*
X31750Y81788D01*
X32766D01*
X32258Y80772D01*
Y80975D02*
X31953Y81585D01*
X32563D01*
X32258Y80975D01*
X30988Y38100D02*
X30480Y39116D01*
X31496D01*
X30988Y38100D01*
Y38303D02*
X30683Y38913D01*
X31293D01*
X30988Y38303D01*
X29718Y61722D02*
X29210Y62738D01*
X30226D01*
X29718Y61722D01*
Y61925D02*
X29413Y62535D01*
X30023D01*
X29718Y61925D01*
Y80772D02*
X29210Y81788D01*
X30226D01*
X29718Y80772D01*
Y80975D02*
X29413Y81585D01*
X30023D01*
X29718Y80975D01*
X27178Y61722D02*
X26670Y62738D01*
X27686D01*
X27178Y61722D01*
Y61925D02*
X26873Y62535D01*
X27483D01*
X27178Y61925D01*
Y80772D02*
X26670Y81788D01*
X27686D01*
X27178Y80772D01*
Y80975D02*
X26873Y81585D01*
X27483D01*
X27178Y80975D01*
X46842Y106172D02*
X46334Y107188D01*
X47350D01*
X46842Y106172D01*
Y106375D02*
X46537Y106985D01*
X47146D01*
X46842Y106375D01*
X68860Y69342D02*
X68352Y70358D01*
X69368D01*
X68860Y69342D01*
Y69545D02*
X68555Y70155D01*
X69165D01*
X68860Y69545D01*
Y67837D02*
X68352Y68853D01*
X69368D01*
X68860Y67837D01*
Y68040D02*
X68555Y68650D01*
X69165D01*
X68860Y68040D01*
X72390Y79248D02*
X71882Y80264D01*
X72898D01*
X72390Y79248D01*
Y79451D02*
X72085Y80061D01*
X72695D01*
X72390Y79451D01*
X44099Y86412D02*
X43591Y87428D01*
X44607D01*
X44099Y86412D01*
Y86616D02*
X43794Y87225D01*
X44404D01*
X44099Y86616D01*
X44749Y88691D02*
X44241Y89707D01*
X45257D01*
X44749Y88691D01*
Y88894D02*
X44444Y89504D01*
X45054D01*
X44749Y88894D01*
X27432Y110191D02*
X26924Y111207D01*
X27940D01*
X27432Y110191D01*
Y110394D02*
X27127Y111004D01*
X27737D01*
X27432Y110394D01*
X80010Y35052D02*
X79502Y36068D01*
X80518D01*
X80010Y35052D01*
Y35255D02*
X79705Y35865D01*
X80315D01*
X80010Y35255D01*
X71250Y11684D02*
X70742Y12700D01*
X71758D01*
X71250Y11684D01*
Y11887D02*
X70945Y12497D01*
X71555D01*
X71250Y11887D01*
X32004Y25908D02*
X31496Y26924D01*
X32512D01*
X32004Y25908D01*
Y26111D02*
X31699Y26721D01*
X32309D01*
X32004Y26111D01*
X23750Y11684D02*
X23242Y12700D01*
X24258D01*
X23750Y11684D01*
Y11887D02*
X23445Y12497D01*
X24055D01*
X23750Y11887D01*
X32004Y35052D02*
X31496Y36068D01*
X32512D01*
X32004Y35052D01*
Y35255D02*
X31699Y35865D01*
X32309D01*
X32004Y35255D01*
X57150Y112522D02*
X56642Y113538D01*
X57658D01*
X57150Y112522D01*
Y112725D02*
X56845Y113335D01*
X57455D01*
X57150Y112725D01*
X76093Y144272D02*
X75585Y145288D01*
X76601D01*
X76093Y144272D01*
Y144475D02*
X75788Y145085D01*
X76398D01*
X76093Y144475D01*
Y139827D02*
X75585Y140843D01*
X76601D01*
X76093Y139827D01*
Y140030D02*
X75788Y140640D01*
X76398D01*
X76093Y140030D01*
X75122Y146304D02*
X74614Y147320D01*
X75630D01*
X75122Y146304D01*
Y146507D02*
X74818Y147117D01*
X75427D01*
X75122Y146507D01*
X64010Y142877D02*
X63502Y143893D01*
X64518D01*
X64010Y142877D01*
Y143080D02*
X63705Y143690D01*
X64315D01*
X64010Y143080D01*
X67945Y137414D02*
X67437Y138430D01*
X68453D01*
X67945Y137414D01*
Y137617D02*
X67640Y138227D01*
X68250D01*
X67945Y137617D01*
X69723Y118364D02*
X69215Y119380D01*
X70230D01*
X69723Y118364D01*
Y118567D02*
X69418Y119177D01*
X70027D01*
X69723Y118567D01*
X73914Y107442D02*
X73406Y108458D01*
X74422D01*
X73914Y107442D01*
Y107645D02*
X73609Y108255D01*
X74219D01*
X73914Y107645D01*
X78740Y98298D02*
X78232Y99314D01*
X79248D01*
X78740Y98298D01*
Y98501D02*
X78435Y99111D01*
X79045D01*
X78740Y98501D01*
X81788Y103632D02*
X81280Y104648D01*
X82296D01*
X81788Y103632D01*
Y103835D02*
X81483Y104445D01*
X82093D01*
X81788Y103835D01*
X83820Y127508D02*
X83312Y128524D01*
X84328D01*
X83820Y127508D01*
Y127711D02*
X83515Y128321D01*
X84125D01*
X83820Y127711D01*
X86360Y141732D02*
X85852Y142748D01*
X86868D01*
X86360Y141732D01*
Y141935D02*
X86055Y142545D01*
X86665D01*
X86360Y141935D01*
X64010Y140827D02*
X63502Y141843D01*
X64518D01*
X64010Y140827D01*
Y141030D02*
X63705Y141640D01*
X64315D01*
X64010Y141030D01*
D94*
X72136Y154178D02*
G03*
X72136Y154178I-508J0D01*
G01*
X69596D02*
G03*
X69596Y154178I-508J0D01*
G01*
X67056D02*
G03*
X67056Y154178I-508J0D01*
G01*
X59436D02*
G03*
X59436Y154178I-508J0D01*
G01*
X56896D02*
G03*
X56896Y154178I-508J0D01*
G01*
X54356D02*
G03*
X54356Y154178I-508J0D01*
G01*
X49276D02*
G03*
X49276Y154178I-508J0D01*
G01*
X44196D02*
G03*
X44196Y154178I-508J0D01*
G01*
X41656D02*
G03*
X41656Y154178I-508J0D01*
G01*
X36576D02*
G03*
X36576Y154178I-508J0D01*
G01*
X34036D02*
G03*
X34036Y154178I-508J0D01*
G01*
X31496D02*
G03*
X31496Y154178I-508J0D01*
G01*
X26416D02*
G03*
X26416Y154178I-508J0D01*
G01*
X23876D02*
G03*
X23876Y154178I-508J0D01*
G01*
X28956D02*
G03*
X28956Y154178I-508J0D01*
G01*
X39116D02*
G03*
X39116Y154178I-508J0D01*
G01*
X46736D02*
G03*
X46736Y154178I-508J0D01*
G01*
X51816D02*
G03*
X51816Y154178I-508J0D01*
G01*
X61976D02*
G03*
X61976Y154178I-508J0D01*
G01*
X64516D02*
G03*
X64516Y154178I-508J0D01*
G01*
X72136Y77978D02*
G03*
X72136Y77978I-508J0D01*
G01*
X69596D02*
G03*
X69596Y77978I-508J0D01*
G01*
X67056D02*
G03*
X67056Y77978I-508J0D01*
G01*
X59436D02*
G03*
X59436Y77978I-508J0D01*
G01*
X56896D02*
G03*
X56896Y77978I-508J0D01*
G01*
X54356D02*
G03*
X54356Y77978I-508J0D01*
G01*
X49276D02*
G03*
X49276Y77978I-508J0D01*
G01*
X44196D02*
G03*
X44196Y77978I-508J0D01*
G01*
X41656D02*
G03*
X41656Y77978I-508J0D01*
G01*
X36576D02*
G03*
X36576Y77978I-508J0D01*
G01*
X34036D02*
G03*
X34036Y77978I-508J0D01*
G01*
X31496D02*
G03*
X31496Y77978I-508J0D01*
G01*
X26416D02*
G03*
X26416Y77978I-508J0D01*
G01*
X23876D02*
G03*
X23876Y77978I-508J0D01*
G01*
X28956D02*
G03*
X28956Y77978I-508J0D01*
G01*
X39116D02*
G03*
X39116Y77978I-508J0D01*
G01*
X46736D02*
G03*
X46736Y77978I-508J0D01*
G01*
X51816D02*
G03*
X51816Y77978I-508J0D01*
G01*
X61976D02*
G03*
X61976Y77978I-508J0D01*
G01*
X64516D02*
G03*
X64516Y77978I-508J0D01*
G01*
X69258Y32000D02*
G03*
X69258Y32000I-508J0D01*
G01*
X74258D02*
G03*
X74258Y32000I-508J0D01*
G01*
X69258Y17500D02*
G03*
X69258Y17500I-508J0D01*
G01*
X71758D02*
G03*
X71758Y17500I-508J0D01*
G01*
X74258D02*
G03*
X74258Y17500I-508J0D01*
G01*
X21758Y32000D02*
G03*
X21758Y32000I-508J0D01*
G01*
X26758D02*
G03*
X26758Y32000I-508J0D01*
G01*
X21758Y17500D02*
G03*
X21758Y17500I-508J0D01*
G01*
X24258D02*
G03*
X24258Y17500I-508J0D01*
G01*
X26758D02*
G03*
X26758Y17500I-508J0D01*
G01*
D95*
X71933Y154178D02*
G03*
X71933Y154178I-305J0D01*
G01*
X69393D02*
G03*
X69393Y154178I-305J0D01*
G01*
X66853D02*
G03*
X66853Y154178I-305J0D01*
G01*
X59233D02*
G03*
X59233Y154178I-305J0D01*
G01*
X56693D02*
G03*
X56693Y154178I-305J0D01*
G01*
X54153D02*
G03*
X54153Y154178I-305J0D01*
G01*
X49073D02*
G03*
X49073Y154178I-305J0D01*
G01*
X43993D02*
G03*
X43993Y154178I-305J0D01*
G01*
X41453D02*
G03*
X41453Y154178I-305J0D01*
G01*
X36373D02*
G03*
X36373Y154178I-305J0D01*
G01*
X33833D02*
G03*
X33833Y154178I-305J0D01*
G01*
X31293D02*
G03*
X31293Y154178I-305J0D01*
G01*
X26213D02*
G03*
X26213Y154178I-305J0D01*
G01*
X23673D02*
G03*
X23673Y154178I-305J0D01*
G01*
X28753D02*
G03*
X28753Y154178I-305J0D01*
G01*
X38913D02*
G03*
X38913Y154178I-305J0D01*
G01*
X46533D02*
G03*
X46533Y154178I-305J0D01*
G01*
X51613D02*
G03*
X51613Y154178I-305J0D01*
G01*
X61773D02*
G03*
X61773Y154178I-305J0D01*
G01*
X64313D02*
G03*
X64313Y154178I-305J0D01*
G01*
X71933Y77978D02*
G03*
X71933Y77978I-305J0D01*
G01*
X69393D02*
G03*
X69393Y77978I-305J0D01*
G01*
X66853D02*
G03*
X66853Y77978I-305J0D01*
G01*
X59233D02*
G03*
X59233Y77978I-305J0D01*
G01*
X56693D02*
G03*
X56693Y77978I-305J0D01*
G01*
X54153D02*
G03*
X54153Y77978I-305J0D01*
G01*
X49073D02*
G03*
X49073Y77978I-305J0D01*
G01*
X43993D02*
G03*
X43993Y77978I-305J0D01*
G01*
X41453D02*
G03*
X41453Y77978I-305J0D01*
G01*
X36373D02*
G03*
X36373Y77978I-305J0D01*
G01*
X33833D02*
G03*
X33833Y77978I-305J0D01*
G01*
X31293D02*
G03*
X31293Y77978I-305J0D01*
G01*
X26213D02*
G03*
X26213Y77978I-305J0D01*
G01*
X23673D02*
G03*
X23673Y77978I-305J0D01*
G01*
X28753D02*
G03*
X28753Y77978I-305J0D01*
G01*
X38913D02*
G03*
X38913Y77978I-305J0D01*
G01*
X46533D02*
G03*
X46533Y77978I-305J0D01*
G01*
X51613D02*
G03*
X51613Y77978I-305J0D01*
G01*
X61773D02*
G03*
X61773Y77978I-305J0D01*
G01*
X64313D02*
G03*
X64313Y77978I-305J0D01*
G01*
%TF.MD5,3d6b371898ebda76392417b78042f2bd*%
M02*
