%TF.GenerationSoftware,Altium Limited,Altium Designer,23.6.0 (18)*%
G04 Layer_Color=16711935*
%FSLAX43Y43*%
%MOMM*%
%TF.SameCoordinates,407812E0-2FFD-4E57-8D94-CFCBE61D5419*%
%TF.FilePolarity,Negative*%
%TF.FileFunction,Soldermask,Bot*%
%TF.Part,Single*%
G01*
G75*
%TA.AperFunction,SMDPad,CuDef*%
G04:AMPARAMS|DCode=23|XSize=1.55mm|YSize=0.95mm|CornerRadius=0.238mm|HoleSize=0mm|Usage=FLASHONLY|Rotation=270.000|XOffset=0mm|YOffset=0mm|HoleType=Round|Shape=RoundedRectangle|*
%AMROUNDEDRECTD23*
21,1,1.550,0.475,0,0,270.0*
21,1,1.075,0.950,0,0,270.0*
1,1,0.475,-0.238,-0.538*
1,1,0.475,-0.238,0.538*
1,1,0.475,0.238,0.538*
1,1,0.475,0.238,-0.538*
%
%ADD23ROUNDEDRECTD23*%
G04:AMPARAMS|DCode=28|XSize=1.4mm|YSize=1.2mm|CornerRadius=0.15mm|HoleSize=0mm|Usage=FLASHONLY|Rotation=90.000|XOffset=0mm|YOffset=0mm|HoleType=Round|Shape=RoundedRectangle|*
%AMROUNDEDRECTD28*
21,1,1.400,0.900,0,0,90.0*
21,1,1.100,1.200,0,0,90.0*
1,1,0.300,0.450,0.550*
1,1,0.300,0.450,-0.550*
1,1,0.300,-0.450,-0.550*
1,1,0.300,-0.450,0.550*
%
%ADD28ROUNDEDRECTD28*%
G04:AMPARAMS|DCode=29|XSize=1.55mm|YSize=0.95mm|CornerRadius=0.238mm|HoleSize=0mm|Usage=FLASHONLY|Rotation=180.000|XOffset=0mm|YOffset=0mm|HoleType=Round|Shape=RoundedRectangle|*
%AMROUNDEDRECTD29*
21,1,1.550,0.475,0,0,180.0*
21,1,1.075,0.950,0,0,180.0*
1,1,0.475,-0.538,0.238*
1,1,0.475,0.538,0.238*
1,1,0.475,0.538,-0.238*
1,1,0.475,-0.538,-0.238*
%
%ADD29ROUNDEDRECTD29*%
G04:AMPARAMS|DCode=33|XSize=1.23mm|YSize=0.59mm|CornerRadius=0.148mm|HoleSize=0mm|Usage=FLASHONLY|Rotation=0.000|XOffset=0mm|YOffset=0mm|HoleType=Round|Shape=RoundedRectangle|*
%AMROUNDEDRECTD33*
21,1,1.230,0.295,0,0,0.0*
21,1,0.935,0.590,0,0,0.0*
1,1,0.295,0.468,-0.148*
1,1,0.295,-0.468,-0.148*
1,1,0.295,-0.468,0.148*
1,1,0.295,0.468,0.148*
%
%ADD33ROUNDEDRECTD33*%
%TA.AperFunction,ComponentPad*%
%ADD39C,3.200*%
%ADD40C,3.450*%
%ADD41C,2.388*%
%ADD42C,1.520*%
G04:AMPARAMS|DCode=43|XSize=1.52mm|YSize=1.52mm|CornerRadius=0.38mm|HoleSize=0mm|Usage=FLASHONLY|Rotation=0.000|XOffset=0mm|YOffset=0mm|HoleType=Round|Shape=RoundedRectangle|*
%AMROUNDEDRECTD43*
21,1,1.520,0.760,0,0,0.0*
21,1,0.760,1.520,0,0,0.0*
1,1,0.760,0.380,-0.380*
1,1,0.760,-0.380,-0.380*
1,1,0.760,-0.380,0.380*
1,1,0.760,0.380,0.380*
%
%ADD43ROUNDEDRECTD43*%
%ADD44C,1.600*%
G04:AMPARAMS|DCode=45|XSize=1.6mm|YSize=1.6mm|CornerRadius=0.4mm|HoleSize=0mm|Usage=FLASHONLY|Rotation=0.000|XOffset=0mm|YOffset=0mm|HoleType=Round|Shape=RoundedRectangle|*
%AMROUNDEDRECTD45*
21,1,1.600,0.800,0,0,0.0*
21,1,0.800,1.600,0,0,0.0*
1,1,0.800,0.400,-0.400*
1,1,0.800,-0.400,-0.400*
1,1,0.800,-0.400,0.400*
1,1,0.800,0.400,0.400*
%
%ADD45ROUNDEDRECTD45*%
%ADD46C,1.550*%
%ADD47R,1.550X1.550*%
G04:AMPARAMS|DCode=48|XSize=2.6mm|YSize=4.7mm|CornerRadius=1.3mm|HoleSize=0mm|Usage=FLASHONLY|Rotation=0.000|XOffset=0mm|YOffset=0mm|HoleType=Round|Shape=RoundedRectangle|*
%AMROUNDEDRECTD48*
21,1,2.600,2.100,0,0,0.0*
21,1,0.000,4.700,0,0,0.0*
1,1,2.600,0.000,-1.050*
1,1,2.600,0.000,-1.050*
1,1,2.600,0.000,1.050*
1,1,2.600,0.000,1.050*
%
%ADD48ROUNDEDRECTD48*%
%ADD49R,1.222X1.222*%
%ADD50C,1.222*%
G04:AMPARAMS|DCode=51|XSize=1.8mm|YSize=1mm|CornerRadius=0.25mm|HoleSize=0mm|Usage=FLASHONLY|Rotation=270.000|XOffset=0mm|YOffset=0mm|HoleType=Round|Shape=RoundedRectangle|*
%AMROUNDEDRECTD51*
21,1,1.800,0.500,0,0,270.0*
21,1,1.300,1.000,0,0,270.0*
1,1,0.500,-0.250,-0.650*
1,1,0.500,-0.250,0.650*
1,1,0.500,0.250,0.650*
1,1,0.500,0.250,-0.650*
%
%ADD51ROUNDEDRECTD51*%
%ADD52O,1.000X2.100*%
%ADD53C,0.650*%
%TA.AperFunction,WasherPad*%
%ADD54C,1.524*%
%TA.AperFunction,ViaPad*%
%ADD55C,0.650*%
%TA.AperFunction,SMDPad,CuDef*%
%ADD58R,7.468X6.477*%
%ADD61R,3.099X2.413*%
%ADD62R,0.533X1.442*%
G36*
X84582Y157353D02*
X83058D01*
X83820Y158115D01*
X83058Y158877D01*
X84582D01*
Y157353D01*
D02*
G37*
G36*
X82868Y158115D02*
X82105Y157353D01*
X81216D01*
Y158877D01*
X82105D01*
X82868Y158115D01*
D02*
G37*
G36*
X81026Y101092D02*
X79502D01*
X80264Y101854D01*
X79502Y102616D01*
X81026D01*
Y101092D01*
D02*
G37*
G36*
X79311Y101854D02*
X78549Y101092D01*
X77660D01*
Y102616D01*
X78549D01*
X79311Y101854D01*
D02*
G37*
G36*
X79502Y94489D02*
X78740Y93727D01*
X77978Y94489D01*
Y95378D01*
X79502D01*
Y94489D01*
D02*
G37*
G36*
Y92012D02*
X77978D01*
Y93536D01*
X78740Y92774D01*
X79502Y93536D01*
Y92012D01*
D02*
G37*
D23*
X71120Y92964D02*
D03*
X68770D02*
D03*
X75545Y154305D02*
D03*
X77895D02*
D03*
D28*
X65550Y90075D02*
D03*
X67550D02*
D03*
X65550Y87122D02*
D03*
X67550D02*
D03*
X56420Y151130D02*
D03*
X58420D02*
D03*
X46990D02*
D03*
X44990D02*
D03*
X77895Y150495D02*
D03*
X75895D02*
D03*
X71485Y158000D02*
D03*
X69485D02*
D03*
X60690D02*
D03*
X58690D02*
D03*
D29*
X74930Y104204D02*
D03*
Y101854D02*
D03*
X78740Y87725D02*
D03*
Y90075D02*
D03*
D33*
X75775Y157165D02*
D03*
Y159065D02*
D03*
X77895Y158115D02*
D03*
X64345Y150180D02*
D03*
Y152080D02*
D03*
X66465Y151130D02*
D03*
D39*
X88900Y88900D02*
D03*
X29000Y161500D02*
D03*
X88710Y82105D02*
D03*
X6540Y36640D02*
D03*
X47500Y16700D02*
D03*
X88710Y22415D02*
D03*
X8763Y79629D02*
D03*
X4318Y83439D02*
D03*
X8763Y87249D02*
D03*
X4318Y91059D02*
D03*
X8763Y94869D02*
D03*
X4318Y98679D02*
D03*
X8763Y102489D02*
D03*
X4318Y106299D02*
D03*
X8763Y110109D02*
D03*
X4318Y113919D02*
D03*
X8763Y117729D02*
D03*
X43080Y5105D02*
D03*
X69600Y5080D02*
D03*
X60760Y5105D02*
D03*
X51920D02*
D03*
X34240D02*
D03*
X25400D02*
D03*
X88900Y29210D02*
D03*
Y36830D02*
D03*
Y51435D02*
D03*
X6350Y52070D02*
D03*
Y58420D02*
D03*
X63500Y161500D02*
D03*
X88900Y146050D02*
D03*
Y151275D02*
D03*
Y156210D02*
D03*
Y115532D02*
D03*
Y95250D02*
D03*
X83820Y161500D02*
D03*
X69850D02*
D03*
D40*
X19877Y145801D02*
D03*
X75122Y129799D02*
D03*
D41*
X83352Y145801D02*
D03*
D42*
X71628Y154178D02*
D03*
X69088D02*
D03*
X66548D02*
D03*
X58928D02*
D03*
X56388D02*
D03*
X53848D02*
D03*
X48768D02*
D03*
X43688D02*
D03*
X41148D02*
D03*
X36068D02*
D03*
X33528D02*
D03*
X30988D02*
D03*
X25908D02*
D03*
X28448D02*
D03*
X38608D02*
D03*
X46228D02*
D03*
X51308D02*
D03*
X61468D02*
D03*
X64008D02*
D03*
X71628Y77978D02*
D03*
X69088D02*
D03*
X66548D02*
D03*
X58928D02*
D03*
X56388D02*
D03*
X53848D02*
D03*
X48768D02*
D03*
X43688D02*
D03*
X41148D02*
D03*
X36068D02*
D03*
X33528D02*
D03*
X30988D02*
D03*
X25908D02*
D03*
X28448D02*
D03*
X38608D02*
D03*
X46228D02*
D03*
X51308D02*
D03*
X61468D02*
D03*
X64008D02*
D03*
D43*
X23368Y154178D02*
D03*
Y77978D02*
D03*
D44*
X76850Y44000D02*
D03*
X74310D02*
D03*
X69230D02*
D03*
X66690D02*
D03*
X71770D02*
D03*
D45*
X64150D02*
D03*
D46*
X68750Y32000D02*
D03*
X73750D02*
D03*
X71250Y17500D02*
D03*
X73750D02*
D03*
X21250Y32000D02*
D03*
X26250D02*
D03*
X23750Y17500D02*
D03*
X26250D02*
D03*
D47*
X68750D02*
D03*
X21250D02*
D03*
D48*
X65650Y25000D02*
D03*
X76850D02*
D03*
X18150D02*
D03*
X29350D02*
D03*
D49*
X38735Y41595D02*
D03*
D50*
X36195Y39055D02*
D03*
X33655Y41595D02*
D03*
D51*
X51820Y166500D02*
D03*
X43180D02*
D03*
D52*
X51820Y162320D02*
D03*
X43180D02*
D03*
D53*
X44610Y162820D02*
D03*
X50390D02*
D03*
D54*
X87500Y44000D02*
D03*
Y124000D02*
D03*
X7500D02*
D03*
Y44000D02*
D03*
X77500Y164000D02*
D03*
X17500Y4000D02*
D03*
X77500D02*
D03*
X17500Y164000D02*
D03*
D55*
X80000Y150000D02*
D03*
Y130000D02*
D03*
X85000Y120000D02*
D03*
X80000Y110000D02*
D03*
X85000Y80000D02*
D03*
X80000Y70000D02*
D03*
X85000Y60000D02*
D03*
X80000Y50000D02*
D03*
X85000Y40000D02*
D03*
Y20000D02*
D03*
X80000Y10000D02*
D03*
X75000Y160000D02*
D03*
X70000Y150000D02*
D03*
Y130000D02*
D03*
X75000Y120000D02*
D03*
X70000Y110000D02*
D03*
X75000Y100000D02*
D03*
X70000Y70000D02*
D03*
Y50000D02*
D03*
Y30000D02*
D03*
X75000Y20000D02*
D03*
X70000Y10000D02*
D03*
X65000Y160000D02*
D03*
X60000Y150000D02*
D03*
Y130000D02*
D03*
X65000Y120000D02*
D03*
X60000Y110000D02*
D03*
X65000Y100000D02*
D03*
X60000Y70000D02*
D03*
X65000Y60000D02*
D03*
X60000Y50000D02*
D03*
X65000Y40000D02*
D03*
X60000Y10000D02*
D03*
X55000Y140000D02*
D03*
X50000Y130000D02*
D03*
X55000Y120000D02*
D03*
Y60000D02*
D03*
Y40000D02*
D03*
X50000Y30000D02*
D03*
X55000Y20000D02*
D03*
X50000Y10000D02*
D03*
X40000Y150000D02*
D03*
X45000Y140000D02*
D03*
Y120000D02*
D03*
Y60000D02*
D03*
X40000Y50000D02*
D03*
X45000Y40000D02*
D03*
X40000Y30000D02*
D03*
X45000Y20000D02*
D03*
X40000Y10000D02*
D03*
X35000Y160000D02*
D03*
X30000Y150000D02*
D03*
X35000Y140000D02*
D03*
X30000Y130000D02*
D03*
X35000Y120000D02*
D03*
X30000Y110000D02*
D03*
Y90000D02*
D03*
Y30000D02*
D03*
X35000Y20000D02*
D03*
X30000Y10000D02*
D03*
X25000Y160000D02*
D03*
X20000Y150000D02*
D03*
X25000Y140000D02*
D03*
X20000Y130000D02*
D03*
X25000Y120000D02*
D03*
X20000Y110000D02*
D03*
X25000Y80000D02*
D03*
X20000Y50000D02*
D03*
Y30000D02*
D03*
X25000Y20000D02*
D03*
X20000Y10000D02*
D03*
X15000Y160000D02*
D03*
X10000Y150000D02*
D03*
X15000Y140000D02*
D03*
X10000Y130000D02*
D03*
X15000Y120000D02*
D03*
Y100000D02*
D03*
X10000Y90000D02*
D03*
Y70000D02*
D03*
X15000Y60000D02*
D03*
X10000Y50000D02*
D03*
X15000Y40000D02*
D03*
X10000Y30000D02*
D03*
X15000Y20000D02*
D03*
X10000Y10000D02*
D03*
X42633Y108809D02*
D03*
X49530Y104752D02*
D03*
X49044Y92964D02*
D03*
X50061Y97475D02*
D03*
X51054Y99075D02*
D03*
X50038Y99875D02*
D03*
X54102Y102275D02*
D03*
X55118Y103075D02*
D03*
X51928Y99752D02*
D03*
X33020Y99314D02*
D03*
Y100375D02*
D03*
Y101475D02*
D03*
X44196Y107696D02*
D03*
X43434Y108809D02*
D03*
X40707Y107113D02*
D03*
X81915Y61214D02*
D03*
X78232D02*
D03*
X41656Y36830D02*
D03*
X50789Y159766D02*
D03*
X36068Y82087D02*
D03*
X47498Y91694D02*
D03*
X31750Y124460D02*
D03*
X25908Y140462D02*
D03*
X42418Y156210D02*
D03*
X26162Y110699D02*
D03*
Y94234D02*
D03*
X24780Y92964D02*
D03*
X42418Y57658D02*
D03*
X34290Y58928D02*
D03*
Y60198D02*
D03*
X34798Y65532D02*
D03*
X24384Y51435D02*
D03*
X23368Y87630D02*
D03*
Y88900D02*
D03*
Y90170D02*
D03*
X27432Y95504D02*
D03*
X48768Y81534D02*
D03*
X50038Y83566D02*
D03*
X44958Y62230D02*
D03*
X57150Y56388D02*
D03*
X47498Y80772D02*
D03*
X35306Y40640D02*
D03*
X32258Y62230D02*
D03*
Y81280D02*
D03*
X30988Y38608D02*
D03*
X29718Y62230D02*
D03*
Y81280D02*
D03*
X27178Y62230D02*
D03*
Y81280D02*
D03*
X46842Y106680D02*
D03*
X68860Y69850D02*
D03*
Y68345D02*
D03*
X72390Y79756D02*
D03*
X44099Y86920D02*
D03*
X44749Y89199D02*
D03*
X27432Y110699D02*
D03*
X80010Y35560D02*
D03*
X71250Y12192D02*
D03*
X32004Y26416D02*
D03*
X23750Y12192D02*
D03*
X32004Y35560D02*
D03*
X57150Y113030D02*
D03*
X76093Y144780D02*
D03*
Y140335D02*
D03*
X75122Y146812D02*
D03*
X64010Y143385D02*
D03*
X67945Y137922D02*
D03*
X69723Y118872D02*
D03*
X73914Y107950D02*
D03*
X78740Y98806D02*
D03*
X81788Y104140D02*
D03*
X83820Y128016D02*
D03*
X86360Y142240D02*
D03*
X64010Y141335D02*
D03*
D58*
X7812Y137800D02*
D03*
X87187D02*
D03*
D61*
X69215Y99060D02*
D03*
D62*
X71120Y101788D02*
D03*
X69850D02*
D03*
X68580D02*
D03*
X67310D02*
D03*
Y96332D02*
D03*
X68580D02*
D03*
X69850D02*
D03*
X71120D02*
D03*
%TF.MD5,a5af0269f1f9e3d590899bb69e46681e*%
M02*
