%TF.GenerationSoftware,Altium Limited,Altium Designer,23.6.0 (18)*%
G04 Layer_Color=255*
%FSLAX43Y43*%
%MOMM*%
%TF.SameCoordinates,407812E0-2FFD-4E57-8D94-CFCBE61D5419*%
%TF.FilePolarity,Positive*%
%TF.FileFunction,Pads,Top*%
%TF.Part,Single*%
G01*
G75*
%TA.AperFunction,SMDPad,CuDef*%
%ADD10R,0.508X1.346*%
%ADD11R,1.346X0.508*%
G04:AMPARAMS|DCode=12|XSize=1.4mm|YSize=1.2mm|CornerRadius=0.15mm|HoleSize=0mm|Usage=FLASHONLY|Rotation=180.000|XOffset=0mm|YOffset=0mm|HoleType=Round|Shape=RoundedRectangle|*
%AMROUNDEDRECTD12*
21,1,1.400,0.900,0,0,180.0*
21,1,1.100,1.200,0,0,180.0*
1,1,0.300,-0.550,0.450*
1,1,0.300,0.550,0.450*
1,1,0.300,0.550,-0.450*
1,1,0.300,-0.550,-0.450*
%
%ADD12ROUNDEDRECTD12*%
%AMCUSTOMSHAPE13*
4,1,5,-0.762,0.826,-0.762,-0.064,0.000,-0.826,0.762,-0.064,0.762,0.826,-0.762,0.826,0.0*%
%ADD13CUSTOMSHAPE13*%

%AMCUSTOMSHAPE14*
4,1,5,0.762,0.762,0.000,0.000,-0.762,0.762,-0.762,-0.762,0.762,-0.762,0.762,0.762,0.0*%
%ADD14CUSTOMSHAPE14*%

%AMCUSTOMSHAPE15*
4,1,5,0.762,-0.826,0.762,0.064,0.000,0.826,-0.762,0.064,-0.762,-0.826,0.762,-0.826,0.0*%
%ADD15CUSTOMSHAPE15*%

%AMCUSTOMSHAPE16*
4,1,5,-0.762,-0.762,0.000,0.000,0.762,-0.762,0.762,0.762,-0.762,0.762,-0.762,-0.762,0.0*%
%ADD16CUSTOMSHAPE16*%

%ADD17R,1.000X1.000*%
%AMCUSTOMSHAPE18*
4,1,5,0.762,0.762,0.000,0.000,0.762,-0.762,-0.762,-0.762,-0.762,0.762,0.762,0.762,0.0*%
%ADD18CUSTOMSHAPE18*%

%AMCUSTOMSHAPE19*
4,1,5,0.826,-0.762,-0.064,-0.762,-0.826,0.000,-0.064,0.762,0.826,0.762,0.826,-0.762,0.0*%
%ADD19CUSTOMSHAPE19*%

%ADD20O,0.250X0.900*%
%ADD21O,0.900X0.250*%
%ADD22R,2.800X2.800*%
G04:AMPARAMS|DCode=23|XSize=1.55mm|YSize=0.95mm|CornerRadius=0.238mm|HoleSize=0mm|Usage=FLASHONLY|Rotation=270.000|XOffset=0mm|YOffset=0mm|HoleType=Round|Shape=RoundedRectangle|*
%AMROUNDEDRECTD23*
21,1,1.550,0.475,0,0,270.0*
21,1,1.075,0.950,0,0,270.0*
1,1,0.475,-0.238,-0.538*
1,1,0.475,-0.238,0.538*
1,1,0.475,0.238,0.538*
1,1,0.475,0.238,-0.538*
%
%ADD23ROUNDEDRECTD23*%
%ADD24R,1.300X1.550*%
G04:AMPARAMS|DCode=25|XSize=1.57mm|YSize=0.41mm|CornerRadius=0.051mm|HoleSize=0mm|Usage=FLASHONLY|Rotation=270.000|XOffset=0mm|YOffset=0mm|HoleType=Round|Shape=RoundedRectangle|*
%AMROUNDEDRECTD25*
21,1,1.570,0.308,0,0,270.0*
21,1,1.468,0.410,0,0,270.0*
1,1,0.103,-0.154,-0.734*
1,1,0.103,-0.154,0.734*
1,1,0.103,0.154,0.734*
1,1,0.103,0.154,-0.734*
%
%ADD25ROUNDEDRECTD25*%
%ADD26R,0.600X0.750*%
G04:AMPARAMS|DCode=27|XSize=1.23mm|YSize=0.59mm|CornerRadius=0.148mm|HoleSize=0mm|Usage=FLASHONLY|Rotation=90.000|XOffset=0mm|YOffset=0mm|HoleType=Round|Shape=RoundedRectangle|*
%AMROUNDEDRECTD27*
21,1,1.230,0.295,0,0,90.0*
21,1,0.935,0.590,0,0,90.0*
1,1,0.295,0.148,0.468*
1,1,0.295,0.148,-0.468*
1,1,0.295,-0.148,-0.468*
1,1,0.295,-0.148,0.468*
%
%ADD27ROUNDEDRECTD27*%
G04:AMPARAMS|DCode=28|XSize=1.4mm|YSize=1.2mm|CornerRadius=0.15mm|HoleSize=0mm|Usage=FLASHONLY|Rotation=90.000|XOffset=0mm|YOffset=0mm|HoleType=Round|Shape=RoundedRectangle|*
%AMROUNDEDRECTD28*
21,1,1.400,0.900,0,0,90.0*
21,1,1.100,1.200,0,0,90.0*
1,1,0.300,0.450,0.550*
1,1,0.300,0.450,-0.550*
1,1,0.300,-0.450,-0.550*
1,1,0.300,-0.450,0.550*
%
%ADD28ROUNDEDRECTD28*%
G04:AMPARAMS|DCode=29|XSize=1.55mm|YSize=0.95mm|CornerRadius=0.238mm|HoleSize=0mm|Usage=FLASHONLY|Rotation=180.000|XOffset=0mm|YOffset=0mm|HoleType=Round|Shape=RoundedRectangle|*
%AMROUNDEDRECTD29*
21,1,1.550,0.475,0,0,180.0*
21,1,1.075,0.950,0,0,180.0*
1,1,0.475,-0.538,0.238*
1,1,0.475,0.538,0.238*
1,1,0.475,0.538,-0.238*
1,1,0.475,-0.538,-0.238*
%
%ADD29ROUNDEDRECTD29*%
%ADD30R,0.900X0.800*%
%AMCUSTOMSHAPE31*
4,1,5,0.826,0.762,-0.064,0.762,-0.826,0.000,-0.064,-0.762,0.826,-0.762,0.826,0.762,0.0*%
%ADD31CUSTOMSHAPE31*%

%AMCUSTOMSHAPE32*
4,1,5,0.762,-0.762,0.000,0.000,0.762,0.762,-0.762,0.762,-0.762,-0.762,0.762,-0.762,0.0*%
%ADD32CUSTOMSHAPE32*%

G04:AMPARAMS|DCode=33|XSize=1.23mm|YSize=0.59mm|CornerRadius=0.148mm|HoleSize=0mm|Usage=FLASHONLY|Rotation=0.000|XOffset=0mm|YOffset=0mm|HoleType=Round|Shape=RoundedRectangle|*
%AMROUNDEDRECTD33*
21,1,1.230,0.295,0,0,0.0*
21,1,0.935,0.590,0,0,0.0*
1,1,0.295,0.468,-0.148*
1,1,0.295,-0.468,-0.148*
1,1,0.295,-0.468,0.148*
1,1,0.295,0.468,0.148*
%
%ADD33ROUNDEDRECTD33*%
%ADD34R,0.600X1.150*%
%ADD35R,0.300X1.150*%
%ADD36R,1.200X1.200*%
%TA.AperFunction,ComponentPad*%
%ADD39C,3.200*%
%ADD40C,3.450*%
%ADD41C,2.388*%
%ADD42C,1.520*%
G04:AMPARAMS|DCode=43|XSize=1.52mm|YSize=1.52mm|CornerRadius=0.38mm|HoleSize=0mm|Usage=FLASHONLY|Rotation=0.000|XOffset=0mm|YOffset=0mm|HoleType=Round|Shape=RoundedRectangle|*
%AMROUNDEDRECTD43*
21,1,1.520,0.760,0,0,0.0*
21,1,0.760,1.520,0,0,0.0*
1,1,0.760,0.380,-0.380*
1,1,0.760,-0.380,-0.380*
1,1,0.760,-0.380,0.380*
1,1,0.760,0.380,0.380*
%
%ADD43ROUNDEDRECTD43*%
%ADD44C,1.600*%
G04:AMPARAMS|DCode=45|XSize=1.6mm|YSize=1.6mm|CornerRadius=0.4mm|HoleSize=0mm|Usage=FLASHONLY|Rotation=0.000|XOffset=0mm|YOffset=0mm|HoleType=Round|Shape=RoundedRectangle|*
%AMROUNDEDRECTD45*
21,1,1.600,0.800,0,0,0.0*
21,1,0.800,1.600,0,0,0.0*
1,1,0.800,0.400,-0.400*
1,1,0.800,-0.400,-0.400*
1,1,0.800,-0.400,0.400*
1,1,0.800,0.400,0.400*
%
%ADD45ROUNDEDRECTD45*%
%ADD46C,1.550*%
%ADD47R,1.550X1.550*%
G04:AMPARAMS|DCode=48|XSize=2.6mm|YSize=4.7mm|CornerRadius=1.3mm|HoleSize=0mm|Usage=FLASHONLY|Rotation=0.000|XOffset=0mm|YOffset=0mm|HoleType=Round|Shape=RoundedRectangle|*
%AMROUNDEDRECTD48*
21,1,2.600,2.100,0,0,0.0*
21,1,0.000,4.700,0,0,0.0*
1,1,2.600,0.000,-1.050*
1,1,2.600,0.000,-1.050*
1,1,2.600,0.000,1.050*
1,1,2.600,0.000,1.050*
%
%ADD48ROUNDEDRECTD48*%
%ADD49R,1.222X1.222*%
%ADD50C,1.222*%
G04:AMPARAMS|DCode=51|XSize=1.8mm|YSize=1mm|CornerRadius=0.25mm|HoleSize=0mm|Usage=FLASHONLY|Rotation=270.000|XOffset=0mm|YOffset=0mm|HoleType=Round|Shape=RoundedRectangle|*
%AMROUNDEDRECTD51*
21,1,1.800,0.500,0,0,270.0*
21,1,1.300,1.000,0,0,270.0*
1,1,0.500,-0.250,-0.650*
1,1,0.500,-0.250,0.650*
1,1,0.500,0.250,0.650*
1,1,0.500,0.250,-0.650*
%
%ADD51ROUNDEDRECTD51*%
%ADD52O,1.000X2.100*%
%ADD53C,0.650*%
%TA.AperFunction,WasherPad*%
%ADD54C,1.524*%
D10*
X38672Y93398D02*
D03*
X39472D02*
D03*
X40272D02*
D03*
X41072D02*
D03*
X41872D02*
D03*
X42672D02*
D03*
X43472D02*
D03*
X44272D02*
D03*
X45072D02*
D03*
X45872D02*
D03*
X46672D02*
D03*
Y104752D02*
D03*
X45872D02*
D03*
X45072D02*
D03*
X44272D02*
D03*
X43472D02*
D03*
X42672D02*
D03*
X41872D02*
D03*
X41072D02*
D03*
X40272D02*
D03*
X39472D02*
D03*
X38672D02*
D03*
D11*
X48349Y95075D02*
D03*
Y95875D02*
D03*
Y96675D02*
D03*
Y97475D02*
D03*
Y98275D02*
D03*
Y99075D02*
D03*
Y99875D02*
D03*
Y100675D02*
D03*
Y101475D02*
D03*
Y102275D02*
D03*
Y103075D02*
D03*
X36995D02*
D03*
Y102275D02*
D03*
Y101475D02*
D03*
Y100675D02*
D03*
Y99875D02*
D03*
Y99075D02*
D03*
Y98275D02*
D03*
Y97475D02*
D03*
Y96675D02*
D03*
Y95875D02*
D03*
Y95075D02*
D03*
D12*
X81915Y56166D02*
D03*
Y58166D02*
D03*
X49022Y108220D02*
D03*
Y110220D02*
D03*
X45974Y108220D02*
D03*
Y110220D02*
D03*
X81915Y51435D02*
D03*
Y49435D02*
D03*
X80010Y66345D02*
D03*
Y68345D02*
D03*
X76200Y66345D02*
D03*
Y68345D02*
D03*
X36195Y30750D02*
D03*
Y32750D02*
D03*
X21110Y42545D02*
D03*
Y40545D02*
D03*
Y45355D02*
D03*
Y47355D02*
D03*
X27432Y114903D02*
D03*
Y112903D02*
D03*
X40640Y163465D02*
D03*
Y165465D02*
D03*
X92075Y136795D02*
D03*
Y138795D02*
D03*
X86360Y136795D02*
D03*
Y138795D02*
D03*
X81280Y136795D02*
D03*
Y138795D02*
D03*
X69090Y134985D02*
D03*
Y132985D02*
D03*
X69850Y148590D02*
D03*
Y146590D02*
D03*
X64770D02*
D03*
Y148590D02*
D03*
X68772Y109950D02*
D03*
Y107950D02*
D03*
X63057Y109950D02*
D03*
Y107950D02*
D03*
X75692Y109950D02*
D03*
Y107950D02*
D03*
X57150Y107950D02*
D03*
Y109950D02*
D03*
D13*
X76200Y60828D02*
D03*
X43857Y42926D02*
D03*
X25910Y84328D02*
D03*
X27432Y122936D02*
D03*
X76200Y77978D02*
D03*
D14*
Y59050D02*
D03*
X43857Y41148D02*
D03*
X25910Y82550D02*
D03*
X27432Y121158D02*
D03*
X76200Y76200D02*
D03*
D15*
X73406Y61468D02*
D03*
X25908Y144780D02*
D03*
D16*
X73406Y63246D02*
D03*
X25908Y146558D02*
D03*
D17*
X50950Y33450D02*
D03*
X51100Y26400D02*
D03*
X43900D02*
D03*
Y33600D02*
D03*
D18*
X53086Y159766D02*
D03*
D19*
X54864D02*
D03*
D20*
X66945Y139285D02*
D03*
X67445D02*
D03*
X67945D02*
D03*
X68445D02*
D03*
X68945D02*
D03*
Y143385D02*
D03*
X68445D02*
D03*
X67945D02*
D03*
X67445D02*
D03*
X66945D02*
D03*
D21*
X69995Y140335D02*
D03*
Y140835D02*
D03*
Y141335D02*
D03*
Y141835D02*
D03*
Y142335D02*
D03*
X65895D02*
D03*
Y141835D02*
D03*
Y141335D02*
D03*
Y140835D02*
D03*
Y140335D02*
D03*
D22*
X67945Y141335D02*
D03*
D23*
X33655Y13970D02*
D03*
X36005D02*
D03*
X40640Y110176D02*
D03*
X38290D02*
D03*
X83630Y13970D02*
D03*
X81280D02*
D03*
X59372D02*
D03*
X61722D02*
D03*
X11620Y13970D02*
D03*
X13970D02*
D03*
X29417Y97790D02*
D03*
X31767D02*
D03*
X58579Y98275D02*
D03*
X56229D02*
D03*
X76295Y51435D02*
D03*
X78645D02*
D03*
D24*
X81498Y123609D02*
D03*
X76998D02*
D03*
X81498Y115659D02*
D03*
X76998D02*
D03*
X87376Y56820D02*
D03*
X91876D02*
D03*
X87376Y64770D02*
D03*
X91876D02*
D03*
D25*
X72760Y72085D02*
D03*
X72110D02*
D03*
X71460D02*
D03*
X70810D02*
D03*
X70160D02*
D03*
X69510D02*
D03*
X68860D02*
D03*
X68210D02*
D03*
Y66345D02*
D03*
X68860D02*
D03*
X69510D02*
D03*
X70160D02*
D03*
X70810D02*
D03*
X71460D02*
D03*
X72110D02*
D03*
X72760D02*
D03*
D26*
X38100Y27516D02*
D03*
X39050Y25316D02*
D03*
X37150D02*
D03*
D27*
X80838Y110070D02*
D03*
X81788Y107950D02*
D03*
X79888D02*
D03*
X68772Y114935D02*
D03*
X70672D02*
D03*
X69723Y117055D02*
D03*
X61600Y114935D02*
D03*
X63500D02*
D03*
X62550Y117055D02*
D03*
D28*
X46750Y158623D02*
D03*
X48750D02*
D03*
X73750Y13970D02*
D03*
X75750D02*
D03*
X68750D02*
D03*
X66750D02*
D03*
X26250Y13970D02*
D03*
X28250D02*
D03*
X21250D02*
D03*
X19250D02*
D03*
X73750Y35560D02*
D03*
X75750D02*
D03*
X26250D02*
D03*
X28250D02*
D03*
D29*
X46609Y86995D02*
D03*
Y89345D02*
D03*
X39549Y86995D02*
D03*
Y89345D02*
D03*
X56515Y165640D02*
D03*
Y163290D02*
D03*
X61470Y132810D02*
D03*
Y135160D02*
D03*
D30*
X82455Y65720D02*
D03*
X84455Y66670D02*
D03*
Y64770D02*
D03*
D31*
X22888Y51435D02*
D03*
D32*
X21110D02*
D03*
D33*
X24765Y42545D02*
D03*
Y40645D02*
D03*
X26885Y41595D02*
D03*
D34*
X50700Y161745D02*
D03*
X44300D02*
D03*
X49900D02*
D03*
X45100D02*
D03*
D35*
X47250D02*
D03*
X47750D02*
D03*
X46750D02*
D03*
X46250D02*
D03*
X45750D02*
D03*
X48250D02*
D03*
X48750D02*
D03*
X49250D02*
D03*
D36*
X81280Y133765D02*
D03*
Y131665D02*
D03*
X86360Y133765D02*
D03*
Y131665D02*
D03*
X92075Y133765D02*
D03*
Y131665D02*
D03*
D39*
X88900Y88900D02*
D03*
X29000Y161500D02*
D03*
X88710Y82105D02*
D03*
X6540Y36640D02*
D03*
X47500Y16700D02*
D03*
X88710Y22415D02*
D03*
X8763Y79629D02*
D03*
X4318Y83439D02*
D03*
X8763Y87249D02*
D03*
X4318Y91059D02*
D03*
X8763Y94869D02*
D03*
X4318Y98679D02*
D03*
X8763Y102489D02*
D03*
X4318Y106299D02*
D03*
X8763Y110109D02*
D03*
X4318Y113919D02*
D03*
X8763Y117729D02*
D03*
X43080Y5105D02*
D03*
X69600Y5080D02*
D03*
X60760Y5105D02*
D03*
X51920D02*
D03*
X34240D02*
D03*
X25400D02*
D03*
X88900Y29210D02*
D03*
Y36830D02*
D03*
Y51435D02*
D03*
X6350Y52070D02*
D03*
Y58420D02*
D03*
X63500Y161500D02*
D03*
X88900Y146050D02*
D03*
Y151275D02*
D03*
Y156210D02*
D03*
Y115532D02*
D03*
Y95250D02*
D03*
X83820Y161500D02*
D03*
X69850D02*
D03*
D40*
X19877Y145801D02*
D03*
X75122Y129799D02*
D03*
D41*
X83352Y145801D02*
D03*
D42*
X71628Y154178D02*
D03*
X69088D02*
D03*
X66548D02*
D03*
X58928D02*
D03*
X56388D02*
D03*
X53848D02*
D03*
X48768D02*
D03*
X43688D02*
D03*
X41148D02*
D03*
X36068D02*
D03*
X33528D02*
D03*
X30988D02*
D03*
X25908D02*
D03*
X28448D02*
D03*
X38608D02*
D03*
X46228D02*
D03*
X51308D02*
D03*
X61468D02*
D03*
X64008D02*
D03*
X71628Y77978D02*
D03*
X69088D02*
D03*
X66548D02*
D03*
X58928D02*
D03*
X56388D02*
D03*
X53848D02*
D03*
X48768D02*
D03*
X43688D02*
D03*
X41148D02*
D03*
X36068D02*
D03*
X33528D02*
D03*
X30988D02*
D03*
X25908D02*
D03*
X28448D02*
D03*
X38608D02*
D03*
X46228D02*
D03*
X51308D02*
D03*
X61468D02*
D03*
X64008D02*
D03*
D43*
X23368Y154178D02*
D03*
Y77978D02*
D03*
D44*
X76850Y44000D02*
D03*
X74310D02*
D03*
X69230D02*
D03*
X66690D02*
D03*
X71770D02*
D03*
D45*
X64150D02*
D03*
D46*
X68750Y32000D02*
D03*
X73750D02*
D03*
X71250Y17500D02*
D03*
X73750D02*
D03*
X21250Y32000D02*
D03*
X26250D02*
D03*
X23750Y17500D02*
D03*
X26250D02*
D03*
D47*
X68750D02*
D03*
X21250D02*
D03*
D48*
X65650Y25000D02*
D03*
X76850D02*
D03*
X18150D02*
D03*
X29350D02*
D03*
D49*
X38735Y41595D02*
D03*
D50*
X36195Y39055D02*
D03*
X33655Y41595D02*
D03*
D51*
X51820Y166500D02*
D03*
X43180D02*
D03*
D52*
X51820Y162320D02*
D03*
X43180D02*
D03*
D53*
X44610Y162820D02*
D03*
X50390D02*
D03*
D54*
X87500Y44000D02*
D03*
Y124000D02*
D03*
X7500D02*
D03*
Y44000D02*
D03*
X77500Y164000D02*
D03*
X17500Y4000D02*
D03*
X77500D02*
D03*
X17500Y164000D02*
D03*
%TF.MD5,d2b0056addc4d79733d8f54c6c420bb7*%
M02*
